HIERARCHY
ROOT Hips
{
  OFFSET 5.84602e-005 68.8428 3.50346
  CHANNELS 6 Xposition Yposition Zposition Zrotation Xrotation Yrotation
  JOINT Spine
  {
    OFFSET 0 8.597 -4.6522
    CHANNELS 3 Zrotation Xrotation Yrotation
    JOINT Spine1
    {
      OFFSET 0 7.8454 0.4098
      CHANNELS 3 Zrotation Xrotation Yrotation
      JOINT Spine2
      {
        OFFSET 0 9.7078 -2.1609
        CHANNELS 3 Zrotation Xrotation Yrotation
        JOINT Neck
        {
          OFFSET 0 21.8761 -0.4549
          CHANNELS 3 Zrotation Xrotation Yrotation
          JOINT Head
          {
            OFFSET 0 12.3537 3.3602
            CHANNELS 3 Zrotation Xrotation Yrotation
            End Site
            {
              OFFSET 0.0001 18.9506 0.5657
            }
          }
        }
        JOINT LeftShoulder
        {
          OFFSET 2.2086 21.1115 7.2329
          CHANNELS 3 Zrotation Xrotation Yrotation
          JOINT LeftArm
          {
            OFFSET 13.1193 3.0282 -4.8998
            CHANNELS 3 Zrotation Xrotation Yrotation
            JOINT LeftForeArm
            {
              OFFSET 27.4081 -0.0973053 -0.2375
              CHANNELS 3 Zrotation Xrotation Yrotation
              JOINT LeftHand
              {
                OFFSET 22.8641 0.0662994 -0.1369
                CHANNELS 3 Zrotation Xrotation Yrotation
                JOINT LeftHandIndex1
                {
                  OFFSET 8.8614 0.775009 2.4612
                  CHANNELS 3 Zrotation Xrotation Yrotation
                  JOINT LeftHandIndex2
                  {
                    OFFSET 3.3146 -0.808304 0.5841
                    CHANNELS 3 Zrotation Xrotation Yrotation
                    JOINT LeftHandIndex3
                    {
                      OFFSET 2.2628 -0.552002 0.3989
                      CHANNELS 3 Zrotation Xrotation Yrotation
                      End Site
                      {
                        OFFSET 1.6102 -0.4807 0.2612
                      }
                    }
                  }
                }
                JOINT LeftHandMiddle1
                {
                  OFFSET 8.9937 0.895004 0.2143
                  CHANNELS 3 Zrotation Xrotation Yrotation
                  JOINT LeftHandMiddle2
                  {
                    OFFSET 4.0984 0.0113983 -0.0242
                    CHANNELS 3 Zrotation Xrotation Yrotation
                    JOINT LeftHandMiddle3
                    {
                      OFFSET 2.2716 0.00689697 -0.0138001
                      CHANNELS 3 Zrotation Xrotation Yrotation
                      End Site
                      {
                        OFFSET 2.0404 -0.1441 0.0027
                      }
                    }
                  }
                }
                JOINT LeftHandRing1
                {
                  OFFSET 8.5234 0.597198 -2.0164
                  CHANNELS 3 Zrotation Xrotation Yrotation
                  JOINT LeftHandRing2
                  {
                    OFFSET 3.7188 -0.188293 -0.2328
                    CHANNELS 3 Zrotation Xrotation Yrotation
                    JOINT LeftHandRing3
                    {
                      OFFSET 2.1191 -0.106598 -0.1332
                      CHANNELS 3 Zrotation Xrotation Yrotation
                      End Site
                      {
                        OFFSET 1.8737 -0.2304 -0.0886
                      }
                    }
                  }
                }
                JOINT LeftHandPinky1
                {
                  OFFSET 7.9094 -0.601089 -3.4825
                  CHANNELS 3 Zrotation Xrotation Yrotation
                  JOINT LeftHandPinky2
                  {
                    OFFSET 2.2874 -0.477005 -0.6314
                    CHANNELS 3 Zrotation Xrotation Yrotation
                    JOINT LeftHandPinky3
                    {
                      OFFSET 1.6774 -0.349396 -0.4633
                      CHANNELS 3 Zrotation Xrotation Yrotation
                      End Site
                      {
                        OFFSET 1.4888 -0.4091 -0.3416
                      }
                    }
                  }
                }
                JOINT LeftHandThumb1
                {
                  OFFSET 1.833 -1.3875 1.3896
                  CHANNELS 3 Zrotation Xrotation Yrotation
                  JOINT LeftHandThumb2
                  {
                    OFFSET 3.4129 -1.121 2.5732
                    CHANNELS 3 Zrotation Xrotation Yrotation
                    JOINT LeftHandThumb3
                    {
                      OFFSET 2.2474 -0.804199 1.6192
                      CHANNELS 3 Zrotation Xrotation Yrotation
                      End Site
                      {
                        OFFSET 1.6527 -0.5689 1.1317
                      }
                    }
                  }
                }
              }
            }
          }
        }
        JOINT RightShoulder
        {
          OFFSET -2.2086 21.1115 7.2329
          CHANNELS 3 Zrotation Xrotation Yrotation
          JOINT RightArm
          {
            OFFSET -13.1216 3.0287 -4.9007
            CHANNELS 3 Zrotation Xrotation Yrotation
            JOINT RightForeArm
            {
              OFFSET -27.4081 -0.0973053 -0.2375
              CHANNELS 3 Zrotation Xrotation Yrotation
              JOINT RightHand
              {
                OFFSET -22.8641 0.0664063 -0.1369
                CHANNELS 3 Zrotation Xrotation Yrotation
                JOINT RightHandIndex1
                {
                  OFFSET -8.8614 0.774994 2.4612
                  CHANNELS 3 Zrotation Xrotation Yrotation
                  JOINT RightHandIndex2
                  {
                    OFFSET -3.3146 -0.808304 0.5841
                    CHANNELS 3 Zrotation Xrotation Yrotation
                    JOINT RightHandIndex3
                    {
                      OFFSET -2.2628 -0.552002 0.3989
                      CHANNELS 3 Zrotation Xrotation Yrotation
                      End Site
                      {
                        OFFSET -1.6102 -0.4807 0.2612
                      }
                    }
                  }
                }
                JOINT RightHandMiddle1
                {
                  OFFSET -8.9937 0.894989 0.2143
                  CHANNELS 3 Zrotation Xrotation Yrotation
                  JOINT RightHandMiddle2
                  {
                    OFFSET -4.0984 0.0113983 -0.0242
                    CHANNELS 3 Zrotation Xrotation Yrotation
                    JOINT RightHandMiddle3
                    {
                      OFFSET -2.2716 0.00691223 -0.0138001
                      CHANNELS 3 Zrotation Xrotation Yrotation
                      End Site
                      {
                        OFFSET -2.0404 -0.1441 0.0027
                      }
                    }
                  }
                }
                JOINT RightHandRing1
                {
                  OFFSET -8.5234 0.597198 -2.0164
                  CHANNELS 3 Zrotation Xrotation Yrotation
                  JOINT RightHandRing2
                  {
                    OFFSET -3.7188 -0.188309 -0.2328
                    CHANNELS 3 Zrotation Xrotation Yrotation
                    JOINT RightHandRing3
                    {
                      OFFSET -2.1191 -0.106598 -0.1332
                      CHANNELS 3 Zrotation Xrotation Yrotation
                      End Site
                      {
                        OFFSET -1.8737 -0.2304 -0.0886
                      }
                    }
                  }
                }
                JOINT RightHandPinky1
                {
                  OFFSET -7.9094 -0.601105 -3.4825
                  CHANNELS 3 Zrotation Xrotation Yrotation
                  JOINT RightHandPinky2
                  {
                    OFFSET -2.2874 -0.477005 -0.6314
                    CHANNELS 3 Zrotation Xrotation Yrotation
                    JOINT RightHandPinky3
                    {
                      OFFSET -1.6774 -0.349396 -0.4633
                      CHANNELS 3 Zrotation Xrotation Yrotation
                      End Site
                      {
                        OFFSET -1.4888 -0.4091 -0.3416
                      }
                    }
                  }
                }
                JOINT RightHandThumb1
                {
                  OFFSET -1.833 -1.38751 1.3896
                  CHANNELS 3 Zrotation Xrotation Yrotation
                  JOINT RightHandThumb2
                  {
                    OFFSET -3.41299 -1.12099 2.5732
                    CHANNELS 3 Zrotation Xrotation Yrotation
                    JOINT RightHandThumb3
                    {
                      OFFSET -2.24741 -0.804108 1.6192
                      CHANNELS 3 Zrotation Xrotation Yrotation
                      End Site
                      {
                        OFFSET -1.6527 -0.5689 1.1317
                      }
                    }
                  }
                }
              }
            }
          }
        }
      }
    }
  }
  JOINT RightUpLeg
  {
    OFFSET -9.1966 3.8861 -0.7581
    CHANNELS 3 Zrotation Xrotation Yrotation
    JOINT RightLeg
    {
      OFFSET -0.7359 -41.0265 0
      CHANNELS 3 Zrotation Xrotation Yrotation
      JOINT RightFoot
      {
        OFFSET 0 -40.2855 0
        CHANNELS 3 Zrotation Xrotation Yrotation
        JOINT RightToeBase
        {
          OFFSET 0 -5.6122 11.7359
          CHANNELS 3 Zrotation Xrotation Yrotation
          End Site
          {
            OFFSET 0 0 7.8731
          }
        }
      }
    }
  }
  JOINT LeftUpLeg
  {
    OFFSET 9.1965 3.8864 -0.7581
    CHANNELS 3 Zrotation Xrotation Yrotation
    JOINT LeftLeg
    {
      OFFSET 0.7359 -41.0268 0
      CHANNELS 3 Zrotation Xrotation Yrotation
      JOINT LeftFoot
      {
        OFFSET 0 -40.2855 0
        CHANNELS 3 Zrotation Xrotation Yrotation
        JOINT LeftToeBase
        {
          OFFSET 0 -5.6122 11.7359
          CHANNELS 3 Zrotation Xrotation Yrotation
          End Site
          {
            OFFSET 0 0 7.8731
          }
        }
      }
    }
  }
}
MOTION
Frames:	4
Frame Time:	0.0333333
-0.000299982 2.23071 6.29312 -180 -89.9981 -180 -0.0982375 5.47922 -0.148175 -0.183431 10.9587 -0.288859 -0.183431 10.9587 -0.288859 -10.3945 8.28596 0.935633 7.66791 -10.628 7.63485 -9.17726 3.25886 0.0455752 -63.3254 4.35745 -25.3638 -11.0325 -0.520409 -62.0106 -11.193 21.8796 -4.71228 1.20077e-007 3.551e-007 -2.03808e-007 -1.20077e-007 -3.551e-007 2.03808e-007 1.20077e-007 3.551e-007 -2.03808e-007 1.20077e-007 3.551e-007 -2.03808e-007 -0.0146477 -9.15042e-005 -9.90793e-007 1.20075e-007 3.55126e-007 -2.03762e-007 1.20077e-007 3.551e-007 -2.03808e-007 -0.0187764 -0.00117559 5.65853e-005 1.20073e-007 3.55133e-007 -2.03751e-007 1.20077e-007 3.551e-007 -2.03808e-007 -0.0122759 -0.00324855 0.000678501 1.20072e-007 3.55121e-007 -2.03773e-007 1.20077e-007 3.551e-007 -2.03808e-007 -1.20077e-007 -3.551e-007 2.03808e-007 1.20077e-007 3.551e-007 -2.03808e-007 10.7045 4.1733 0.970812 63.0174 4.27379 25.5116 10.1337 -2.29846 60.703 10.3395 23.5584 4.82699 -1.51496e-007 -9.83049e-007 3.20471e-006 6.70062e-007 -4.09399e-007 -4.04435e-006 -1.59028e-015 -1.59028e-015 -3.18055e-015 -1.51496e-007 -9.83049e-007 3.20471e-006 0.0149884 -8.79273e-005 1.25256e-006 -6.36111e-015 2.38542e-014 3.18055e-015 -1.51496e-007 -9.83049e-007 3.20471e-006 0.0190024 -0.00118953 -6.1507e-005 -6.36111e-015 0 -6.36111e-015 -1.51496e-007 -9.83049e-007 3.20471e-006 0.0122592 -0.00324824 -0.000682805 -3.18055e-015 6.36111e-015 3.18055e-015 -1.51496e-007 -9.83049e-007 3.20471e-006 6.70062e-007 -4.09399e-007 -4.04435e-006 -1.59028e-015 -1.59028e-015 -3.18055e-015 5.20306 0.520693 7.47043 -2.55654 12.7837 0.0216606 -3.89246 11.4012 -9.99225 7.68758e-007 1.84546e-008 6.18248e-009 -5.11415 0.768154 -10.5987 1.85789 12.4821 0.132649 3.60002 11.2426 13.0675 -1.77747e-007 9.1611e-009 1.17731e-007 
-0.000299982 2.23071 6.29312 -180 -89.9981 -180 -0.0981567 5.43902 -0.148232 -0.183352 10.8782 -0.289023 -0.183352 10.8782 -0.289023 -10.3436 8.33476 0.935469 7.62232 -10.5331 7.58939 -9.16559 3.4072 0.157132 -63.4551 4.43718 -25.3727 -11.0325 -0.52041 -62.0106 -11.3202 21.8678 -4.26776 2.9599e-006 -6.12482e-007 -3.1968e-007 -3.20174e-006 -9.72636e-008 7.26942e-007 2.9599e-006 -6.12482e-007 -3.1968e-007 2.9599e-006 -6.12482e-007 -3.1968e-007 -0.014619 -8.68433e-005 -1.34762e-007 2.96011e-006 -6.1244e-007 -3.19761e-007 2.9599e-006 -6.12482e-007 -3.1968e-007 -0.0187811 -0.00117886 5.66365e-005 5.43526e-007 -1.83934e-007 -1.19552e-006 2.9599e-006 -6.12482e-007 -3.1968e-007 -0.0123069 -0.0032542 0.000676778 2.96006e-006 -6.1242e-007 -3.1984e-007 2.9599e-006 -6.12482e-007 -3.1968e-007 -3.20174e-006 -9.72636e-008 7.26942e-007 2.9599e-006 -6.12482e-007 -3.1968e-007 10.6107 4.26482 0.808193 63.163 4.36514 25.5117 10.1845 -2.20866 60.789 10.5346 23.4877 4.33661 3.18055e-015 -7.95139e-015 -3.18055e-015 -4.77083e-015 -3.18055e-015 -3.18055e-015 3.18055e-015 -4.77083e-015 -0 3.18055e-015 -7.95139e-015 -3.18055e-015 0.0150287 -9.11312e-005 5.13303e-006 6.36111e-015 0 -1.27222e-014 3.18055e-015 -7.95139e-015 -3.18055e-015 0.0189784 -0.00119028 -5.69727e-005 4.77083e-015 -1.59028e-015 -0 3.18055e-015 -7.95139e-015 -3.18055e-015 0.0122822 -0.00324997 -0.00068231 3.18055e-015 3.18055e-015 -3.18055e-015 3.18055e-015 -7.95139e-015 -3.18055e-015 -4.77083e-015 -3.18055e-015 -3.18055e-015 3.18055e-015 -4.77083e-015 -0 5.20306 0.520693 7.47043 -2.55654 12.7837 0.0216606 -3.89246 11.4012 -9.99225 7.68758e-007 1.84546e-008 6.18248e-009 -5.11415 0.768154 -10.5987 1.85789 12.4821 0.132649 3.60002 11.2426 13.0675 -1.77747e-007 9.1611e-009 1.17731e-007 
-0.000299982 2.23071 6.29312 -180 -89.9981 -180 -0.0980746 5.39878 -0.148288 -0.183271 10.7977 -0.289185 -0.183271 10.7977 -0.289186 -10.2926 8.3832 0.93524 7.57681 -10.438 7.54402 -9.15421 3.55557 0.268674 -63.5848 4.51695 -25.3815 -11.0325 -0.520413 -62.0106 -11.4473 21.8552 -3.82329 1.21759e-007 3.54644e-007 -2.0345e-007 -5.89706e-007 5.32681e-007 -1.51187e-006 1.21759e-007 3.54644e-007 -2.0345e-007 1.21759e-007 3.54644e-007 -2.0345e-007 -0.0146318 -8.95786e-005 5.38205e-007 -2.30149e-006 7.80665e-007 -1.04652e-006 1.21759e-007 3.54644e-007 -2.0345e-007 -0.0187945 -0.00117728 5.72505e-005 1.21754e-007 3.54677e-007 -2.03393e-007 1.21759e-007 3.54644e-007 -2.0345e-007 -0.0122234 -0.00323353 0.000675747 1.21754e-007 3.54664e-007 -2.03416e-007 1.21759e-007 3.54644e-007 -2.0345e-007 -5.89706e-007 5.32681e-007 -1.51187e-006 1.21759e-007 3.54644e-007 -2.0345e-007 10.5172 4.35658 0.645709 63.3086 4.45649 25.5115 10.2352 -2.11879 60.8749 10.729 23.4155 3.84679 2.61648e-007 -6.96061e-007 -4.18348e-007 1.30824e-007 -3.4803e-007 -2.09174e-007 1.30824e-007 -3.4803e-007 -2.09174e-007 2.61648e-007 -6.96061e-007 -4.18348e-007 0.0150278 -9.17835e-005 3.41797e-006 2.34655e-006 1.7275e-007 4.43937e-007 2.61648e-007 -6.96061e-007 -4.18348e-007 0.0189518 -0.00119034 -5.22221e-005 1.3082e-007 -3.48065e-007 -2.09118e-007 2.61648e-007 -6.96061e-007 -4.18348e-007 0.0122747 -0.00324898 -0.000675065 1.30819e-007 -3.48051e-007 -2.0914e-007 2.61648e-007 -6.96061e-007 -4.18348e-007 1.30824e-007 -3.4803e-007 -2.09174e-007 1.30824e-007 -3.4803e-007 -2.09174e-007 5.20306 0.520693 7.47043 -2.55654 12.7837 0.0216606 -3.89246 11.4012 -9.99225 7.68758e-007 1.84546e-008 6.18248e-009 -5.11415 0.768154 -10.5987 1.85789 12.4821 0.132649 3.60002 11.2426 13.0675 -1.77747e-007 9.1611e-009 1.17731e-007 
-0.000299982 2.23071 6.29312 -180 -89.9981 -180 -0.0979918 5.35856 -0.148342 -0.183188 10.7173 -0.289345 -0.183188 10.7173 -0.289345 -10.2416 8.43246 0.934961 7.53138 -10.343 7.49874 -9.14312 3.70395 0.380204 -63.7145 4.59673 -25.3901 -11.0325 -0.520409 -62.0106 -11.5742 21.8417 -3.37895 -8.23265e-007 -1.56832e-007 -1.15096e-006 -6.12975e-007 -1.77206e-006 1.01633e-006 5.78075e-007 -5.51994e-007 1.55749e-006 -8.23265e-007 -1.56832e-007 -1.15096e-006 -0.0145844 -9.29614e-005 -1.02496e-006 -2.45185e-007 -7.08877e-007 4.06442e-007 -8.23265e-007 -1.56832e-007 -1.15096e-006 -0.0187234 -0.00117445 5.28499e-005 -2.45181e-007 -7.08891e-007 4.06419e-007 -8.23265e-007 -1.56832e-007 -1.15096e-006 -0.0122263 -0.00323979 0.000676889 5.76456e-007 -5.52603e-007 1.55751e-006 -8.23265e-007 -1.56832e-007 -1.15096e-006 -6.12975e-007 -1.77206e-006 1.01633e-006 5.78075e-007 -5.51994e-007 1.55749e-006 10.4239 4.44861 0.483358 63.4543 4.54783 25.5112 10.2858 -2.02885 60.9608 10.9225 23.3417 3.35754 1.31412e-007 -3.47986e-007 -2.08804e-007 2.62825e-007 -6.95972e-007 -4.17608e-007 1.31412e-007 -3.47986e-007 -2.08804e-007 1.31412e-007 -3.47986e-007 -2.08804e-007 0.0150293 -9.19625e-005 2.39252e-006 1.3141e-007 -3.48013e-007 -2.08759e-007 1.31412e-007 -3.47986e-007 -2.08804e-007 0.0189656 -0.00118861 -6.2369e-005 -9.79991e-007 -9.39241e-008 -1.68412e-006 1.31412e-007 -3.47986e-007 -2.08804e-007 0.012216 -0.00323493 -0.000678247 1.31407e-007 -3.48007e-007 -2.08771e-007 1.31412e-007 -3.47986e-007 -2.08804e-007 2.62825e-007 -6.95972e-007 -4.17608e-007 1.31412e-007 -3.47986e-007 -2.08804e-007 5.20306 0.520693 7.47043 -2.55654 12.7837 0.0216606 -3.89246 11.4012 -9.99225 7.68758e-007 1.84546e-008 6.18248e-009 -5.11415 0.768154 -10.5987 1.85789 12.4821 0.132647 3.60002 11.2426 13.0675 -5.33242e-007 2.74833e-008 3.53193e-007 
